# xmcd CD database file
#
# Track frame offsets:
#	150
#	13646
#	30818
#	37446
#	49958
#	62125
#	75443
#	84930
#	95206
#	108847
#	119923
#	132966
#	145481
#	158761
#	171538
#	184859
#
# Disc length: 2627 seconds
#
# Revision: 0
# Processed by: cddbd v1.5.1PL0 Copyright (c) Steve Scherf et al.
# Submitted via: CDex 1.51
#
DISCID=e00a4110
DTITLE=Various Artist - Country Classics - Country Songs 3/3
DYEAR=1900
DGENRE=Country
TTITLE0=Kenny Rogers - Ruby don't take your Love to Town
TTITLE1=John Denver - Calypso
TTITLE2=don Williams - Lord I hope this Day is good
TTITLE3=Willie Nelson - Shelter of your Arms
TTITLE4=Johnny Cash - Folsom Prison Blues
TTITLE5=Lynn Anderson - Rose Garden
TTITLE6=Jim Reeves - I'm  getting Better
TTITLE7=Wanda Jackson - It's only make belive
TTITLE8=Jeannie Seely - One Day at a Tima
TTITLE9=Charly Pride - Lousiana Man
TTITLE10=Ferlin Husky - A Room full of Roses
TTITLE11=George Jones - Don't be angry
TTITLE12=John Denver - Eagle and the Hawk
TTITLE13=Johnny Cash - Peace in the Valley
TTITLE14=George Jones - Almoust Persuaded
TTITLE15=Billy Joe Spears - Mysty Blue
EXTD=
EXTT0=
EXTT1=
EXTT2=
EXTT3=
EXTT4=
EXTT5=
EXTT6=
EXTT7=
EXTT8=
EXTT9=
EXTT10=
EXTT11=
EXTT12=
EXTT13=
EXTT14=
EXTT15=
PLAYORDER=
